<?xml version="1.0" encoding="utf-8"?>
<!-- Generator: Adobe Illustrator 15.0.0, SVG Export Plug-In . SVG Version: 6.00 Build 0)  -->
<!DOCTYPE svg PUBLIC "-//W3C//DTD SVG 1.1//EN" "http://www.w3.org/Graphics/SVG/1.1/DTD/svg11.dtd">
<svg version="1.1" id="Calque_1" xmlns="http://www.w3.org/2000/svg" xmlns:xlink="http://www.w3.org/1999/xlink" x="0px" y="0px"
	 width="120px" height="120px" viewBox="0 0 120 120" enable-background="new 0 0 120 120" xml:space="preserve">
<path fill="#FFFFFF" d="M117.949,65.064c0.145-1.668,0.218-3.372,0.218-5.083l-0.001-0.224h-2.338
	c-0.008-1.638-0.092-3.257-0.237-4.859l2.337-0.211c-0.152-1.681-0.38-3.372-0.677-5.026l-2.317,0.416
	c-0.29-1.606-0.645-3.19-1.068-4.746l2.272-0.618c-0.443-1.63-0.963-3.255-1.544-4.832l-2.203,0.813
	c-0.564-1.527-1.199-3.021-1.891-4.482l2.133-1.006c-0.718-1.521-1.513-3.03-2.362-4.486l-2.046,1.193
	c-0.82-1.403-1.7-2.766-2.636-4.088l1.937-1.369c-0.97-1.373-2.015-2.722-3.105-4.01l-1.809,1.532
	c-1.049-1.239-2.146-2.437-3.297-3.581l1.666-1.676c-1.192-1.185-2.454-2.333-3.752-3.415l-1.513,1.816
	c-1.245-1.039-2.54-2.019-3.873-2.948l1.354-1.944c-1.385-0.964-2.827-1.878-4.286-2.715l-1.178,2.055
	c-1.404-0.807-2.844-1.556-4.32-2.241l0.992-2.145c-1.531-0.708-3.111-1.357-4.695-1.927L78.913,7.47
	c-1.519-0.549-3.068-1.032-4.646-1.449l0.598-2.27c-1.628-0.429-3.296-0.791-4.956-1.076l-0.398,2.318
	c-1.587-0.274-3.196-0.479-4.826-0.616l0.194-2.341c-1.61-0.134-3.252-0.202-4.891-0.202l-0.169,0V4.17
	c-1.638,0.005-3.258,0.09-4.86,0.234L54.75,2.068c-1.677,0.149-3.368,0.375-5.026,0.671l0.413,2.317
	c-1.607,0.288-3.191,0.64-4.748,1.063l-0.614-2.271c-1.627,0.44-3.253,0.958-4.833,1.538l0.809,2.202
	c-1.528,0.563-3.021,1.198-4.483,1.888l-1.005-2.134c-1.524,0.718-3.035,1.511-4.489,2.357l1.192,2.046
	c-1.404,0.819-2.768,1.697-4.091,2.631l-1.367-1.938c-1.376,0.971-2.726,2.014-4.013,3.101l1.529,1.81
	c-1.24,1.048-2.44,2.143-3.584,3.292l-1.674-1.666c-1.188,1.194-2.338,2.455-3.417,3.747l1.814,1.517
	c-1.04,1.244-2.021,2.537-2.952,3.869l-1.943-1.356c-0.965,1.383-1.88,2.824-2.719,4.283l2.054,1.182
	c-0.808,1.403-1.559,2.841-2.246,4.317L7.211,35.54c-0.708,1.527-1.359,3.106-1.932,4.692l2.21,0.799
	c-0.55,1.519-1.033,3.068-1.452,4.645l-2.271-0.602c-0.43,1.625-0.794,3.292-1.082,4.956l2.319,0.401
	c-0.275,1.587-0.484,3.196-0.622,4.826L2.04,55.06C1.903,56.695,1.833,58.357,1.833,60v0.121h2.336
	c0.004,1.639,0.088,3.258,0.231,4.86l-2.338,0.208c0.149,1.68,0.373,3.371,0.666,5.026l2.318-0.411
	c0.286,1.607,0.636,3.191,1.056,4.749l-2.271,0.612c0.438,1.626,0.954,3.253,1.533,4.835l2.203-0.806
	c0.561,1.528,1.196,3.021,1.884,4.483l-2.136,1.003c0.715,1.523,1.507,3.035,2.353,4.491l2.048-1.189
	c0.817,1.405,1.693,2.771,2.626,4.095l-1.939,1.364c0.969,1.376,2.01,2.728,3.096,4.017l1.811-1.526
	c1.046,1.241,2.139,2.442,3.288,3.588l-1.667,1.672c1.193,1.188,2.453,2.34,3.743,3.421l1.52-1.813
	c1.242,1.041,2.534,2.024,3.865,2.956l-1.357,1.942c1.381,0.966,2.821,1.882,4.279,2.724l1.183-2.052
	c1.402,0.81,2.84,1.563,4.315,2.251l-0.996,2.142c1.528,0.71,3.105,1.361,4.689,1.937l0.801-2.207
	c1.518,0.552,3.068,1.034,4.644,1.454l-0.604,2.271c1.623,0.432,3.29,0.798,4.955,1.087l0.403-2.317
	c1.587,0.276,3.196,0.487,4.825,0.627l-0.199,2.34c1.657,0.142,3.339,0.213,5.002,0.213h0.061l-0.047-2.332
	c1.655-0.001,3.289-0.087,4.908-0.229l0.205,2.339c1.677-0.146,3.368-0.368,5.027-0.66l-0.407-2.318
	c1.607-0.284,3.192-0.632,4.75-1.051l0.609,2.271c1.628-0.437,3.256-0.951,4.837-1.528l-0.805-2.203
	c1.529-0.561,3.022-1.194,4.486-1.881l1.001,2.138c1.524-0.714,3.036-1.504,4.494-2.348l-1.188-2.05
	c1.405-0.815,2.772-1.689,4.097-2.621l1.363,1.94c1.382-0.971,2.734-2.012,4.02-3.093l-1.524-1.812
	c1.242-1.046,2.445-2.137,3.593-3.285l1.669,1.668c1.192-1.193,2.345-2.452,3.426-3.74l-1.814-1.521
	c1.043-1.241,2.027-2.531,2.961-3.861l1.94,1.361c0.968-1.379,1.886-2.818,2.729-4.277l-2.052-1.187
	c0.812-1.401,1.567-2.838,2.257-4.313l2.141,0.998c0.713-1.528,1.366-3.105,1.942-4.688l-2.206-0.803
	c0.553-1.517,1.035-3.067,1.457-4.643l2.271,0.607c0.434-1.622,0.801-3.288,1.093-4.953l-2.318-0.406
	c0.278-1.587,0.492-3.194,0.634-4.824L117.949,65.064z M60,112.834C30.867,112.834,7.166,89.133,7.166,60S30.867,7.166,60,7.166
	S112.834,30.867,112.834,60S89.133,112.834,60,112.834z"/>
</svg>
